HIERARCHY
ROOT Hips
{
  OFFSET 13.6774 106.653 -34.4427
  CHANNELS 6 Xposition Yposition Zposition Zrotation Xrotation Yrotation
  JOINT ToSpine
  {
    OFFSET -2.69724 7.43032 -0.144315
    CHANNELS 3 Zrotation Xrotation Yrotation
    JOINT Spine
    {
      OFFSET -0.0310711 10.7595 1.96963
      CHANNELS 3 Zrotation Xrotation Yrotation
      JOINT Spine1
      {
        OFFSET 19.9056 3.91189 0.764692
        CHANNELS 3 Zrotation Xrotation Yrotation
        JOINT Neck
        {
          OFFSET 25.9749 7.03908 -0.130764
          CHANNELS 3 Zrotation Xrotation Yrotation
          JOINT Head
          {
            OFFSET 9.52751 0.295786 -0.907742
            CHANNELS 3 Zrotation Xrotation Yrotation
            End Site
            {
              OFFSET 16.4037 0.713936 2.7358
            }
          }
        }
        JOINT LeftShoulder
        {
          OFFSET 17.7449 4.33886 11.7777
          CHANNELS 3 Zrotation Xrotation Yrotation
          JOINT LeftArm
          {
            OFFSET 0.911315 1.27913 9.80584
            CHANNELS 3 Zrotation Xrotation Yrotation
            JOINT LeftForeArm
            {
              OFFSET 28.6126 1.18197 -3.53199
              CHANNELS 3 Zrotation Xrotation Yrotation
              JOINT LeftHand
              {
                OFFSET 27.5088 0.0218783 0.327423
                CHANNELS 3 Zrotation Xrotation Yrotation
                End Site
                {
                  OFFSET 18.6038 -0.000155887 0.382096
                }
              }
            }
          }
        }
        JOINT RightShoulder
        {
          OFFSET 17.1009 2.89543 -12.2328
          CHANNELS 3 Zrotation Xrotation Yrotation
          JOINT RightArm
          {
            OFFSET 1.4228 0.178766 -10.211
            CHANNELS 3 Zrotation Xrotation Yrotation
            JOINT RightForeArm
            {
              OFFSET 28.733 1.87905 2.64907
              CHANNELS 3 Zrotation Xrotation Yrotation
              JOINT RightHand
              {
                OFFSET 27.4588 0.290562 -0.101845
                CHANNELS 3 Zrotation Xrotation Yrotation
                End Site
                {
                  OFFSET 17.8396 -0.255518 -0.000602873
                }
              }
            }
          }
        }
      }
    }
  }
  JOINT LeftUpLeg
  {
    OFFSET -5.61296 -2.22332 -10.2353
    CHANNELS 3 Zrotation Xrotation Yrotation
    JOINT LeftLeg
    {
      OFFSET 2.56703 -44.7417 -7.93097
      CHANNELS 3 Zrotation Xrotation Yrotation
      JOINT LeftFoot
      {
        OFFSET 3.16933 -46.5642 -3.96578
        CHANNELS 3 Zrotation Xrotation Yrotation
        JOINT LeftToeBase
        {
          OFFSET 0.346054 -6.02161 12.8035
          CHANNELS 3 Zrotation Xrotation Yrotation
          End Site
          {
            OFFSET 0.134235 -1.35082 5.13018
          }
        }
      }
    }
  }
  JOINT RightUpLeg
  {
    OFFSET -5.7928 -1.72406 10.6446
    CHANNELS 3 Zrotation Xrotation Yrotation
    JOINT RightLeg
    {
      OFFSET -2.57161 -44.7178 -7.85259
      CHANNELS 3 Zrotation Xrotation Yrotation
      JOINT RightFoot
      {
        OFFSET -3.10148 -46.5936 -4.03391
        CHANNELS 3 Zrotation Xrotation Yrotation
        JOINT RightToeBase
        {
          OFFSET -0.0828122 -6.13587 12.8035
          CHANNELS 3 Zrotation Xrotation Yrotation
          End Site
          {
            OFFSET -0.131328 -1.35082 5.13018
          }
        }
      }
    }
  }
}
MOTION
Frames: 12
Frame Time: 0.03333333333333333
0.0000 93.1000 0.0000 1.9774 -71.1003 -91.1961 -70.9891 -0.0214 87.9969 95.8449 69.9158 -9.4680 0.0958 18.1306 5.0318 -143.4624 17.7201 175.9906 -144.2665 56.1698 -176.3524 -0.9161 -15.8617 -33.9783 -83.9267 45.1682 -75.6469 12.9073 10.9672 -51.1183 -0.2634 -0.1682 0.1768 -2.1545 5.9911 44.3955 -60.7827 -28.0104 110.0471 21.8452 8.4914 110.8184 0.1672 0.0291 -0.2987 -50.3704 4.8761 106.1497 -1.5377 31.2478 1.4039 -1.5706 -12.2089 -1.3697 -0.6508 -2.7110 7.1233 -47.9420 -6.4016 81.1943 -1.1654 27.2099 17.9462 -5.9219 -8.5918 0.8782 -0.0834 -6.1849 -1.0232 
0.0000 93.1000 0.0000 1.0110 -71.0701 -91.0647 -70.9849 -0.0027 87.9986 96.0672 69.6969 -8.9982 0.1920 18.2009 5.0698 -144.1984 17.7688 176.0709 -144.1294 55.7443 -176.5626 -0.7283 -15.7280 -33.9511 -84.9796 44.7922 -75.6453 12.9550 10.9835 -51.2799 -0.0857 -0.1243 0.0288 -2.0385 5.9685 44.9078 -60.9513 -28.0701 109.8490 22.5314 8.4759 111.2191 0.0457 0.0047 -0.2138 -51.0356 4.6454 105.8531 -2.2270 30.3862 4.0130 -1.6893 -11.7908 -1.4495 -0.8571 -0.4156 5.5452 -47.3050 -6.2664 81.4215 -1.0354 28.2120 16.8770 -5.5276 -8.3284 0.9434 0.2020 -5.8476 -2.7095 
0.0000 93.1000 0.0000 0.6489 -70.9848 -91.9762 -70.9835 0.1198 87.9990 95.0395 69.9753 -7.7065 0.2202 18.6409 4.4853 -144.3970 18.0605 176.0584 -145.2907 56.1627 -175.2298 -0.8288 -15.8699 -34.2334 -85.1492 45.1437 -74.6859 13.1242 11.1598 -51.6369 -0.1259 0.0017 -0.1441 -2.0367 6.0832 44.9112 -60.2174 -28.2887 109.1859 22.4369 9.2271 110.8416 -0.2048 -0.1065 -0.3336 -50.6612 4.2797 104.8371 -2.2220 29.6712 4.2080 -1.4405 -11.0753 -1.4465 -1.0481 -1.6542 5.6994 -46.7678 -5.8987 81.6688 -0.9718 28.4262 16.8580 -6.5693 -7.9087 1.1362 0.4290 -5.8262 -1.7562 
0.0000 93.1000 0.0000 1.0071 -70.7555 -92.2133 -70.9862 -0.0037 87.9981 94.9847 70.2047 -7.0677 -0.0883 18.2916 4.5335 -145.2523 17.8273 177.4037 -145.3058 56.2614 -175.3651 -0.8799 -15.9801 -34.1194 -85.0856 44.7864 -73.9423 13.2766 11.3703 -51.2984 -0.1110 -0.0916 -0.1993 -2.0274 5.9571 45.0521 -59.8340 -28.3706 109.0467 21.8272 9.5512 110.8055 -0.1784 -0.0185 -0.0696 -50.7820 3.9023 103.9137 -2.4902 28.3959 5.0556 -0.8748 -9.6978 -1.2631 -1.2527 -2.7874 5.7033 -46.5078 -5.1976 81.7091 -1.0442 28.1677 17.0544 -5.2577 -8.6520 1.0182 0.9592 -4.9279 -2.6014 
0.0000 93.1000 0.0000 0.9884 -70.2597 -91.8171 -70.9891 -0.3220 87.9979 94.9563 70.4702 -7.0480 -0.1115 18.3852 4.7117 -145.4880 18.0404 176.3281 -144.2727 56.1196 -177.3354 -0.6064 -15.8165 -34.1557 -85.1586 44.8872 -74.6086 13.0645 10.8605 -51.0285 0.0258 -0.3786 -0.1427 -1.9792 6.0582 45.1515 -60.0987 -27.9945 108.8776 21.6782 9.3897 110.9856 -0.0118 0.2713 0.2109 -50.9503 3.8230 103.2513 -2.2065 28.0539 4.9838 -0.7113 -8.9132 -1.2183 -0.6589 -3.2522 6.8119 -46.8394 -4.7784 82.1935 -0.9891 27.9478 16.8307 -5.6825 -8.8320 0.9272 0.8360 -4.4798 -4.2396 
0.0000 93.1000 0.0000 1.8513 -70.2061 -91.0760 -70.9903 -0.3781 87.9986 93.8755 70.2433 -6.6297 0.1936 18.0948 5.0261 -146.4892 17.9424 176.3588 -144.5219 56.0817 -177.5610 -1.1194 -15.8120 -33.8044 -84.5541 44.2943 -74.7306 12.7609 10.3806 -50.2967 0.0440 -0.2715 -0.1434 -2.2005 5.9954 44.9963 -59.8134 -28.2284 107.9035 22.1749 9.0494 110.8234 -0.0217 0.1268 0.1038 -51.0862 3.8497 103.0792 -2.0517 27.3881 4.9145 -1.2285 -9.2679 -0.8857 -0.6134 -3.1938 6.8424 -47.0676 -5.1442 82.1027 -1.1172 27.2286 16.9992 -5.9786 -8.1650 0.9797 -0.0312 -4.5197 -4.1547 
0.0000 93.1000 0.0000 2.8595 -70.2438 -89.7623 -70.9920 -0.3649 87.9983 92.9734 69.8539 -6.2442 0.0576 18.1306 5.0342 -146.4397 18.0378 177.2209 -145.5174 55.9672 -176.1246 -1.8056 -16.1003 -34.2852 -84.0536 44.2774 -74.7007 12.8578 11.0548 -50.0953 0.0105 -0.1154 -0.0369 -2.5738 6.1509 44.1556 -58.9197 -29.1679 107.7837 22.4268 8.8195 110.9068 -0.0723 0.0464 0.0301 -51.2175 3.9524 101.9360 -2.8237 27.2560 5.9578 -1.3942 -8.9590 -0.5266 -0.4338 -2.9298 6.3030 -47.4413 -5.2876 82.0531 -1.0525 27.1828 16.7359 -6.0331 -8.0619 0.8057 -0.1095 -5.0130 -5.1392 
0.0000 93.1000 0.0000 2.8861 -70.1321 -90.0449 -70.9906 -0.4828 87.9987 92.7870 70.0387 -4.9344 0.7130 18.1295 4.7337 -146.3955 17.9189 177.1603 -145.4383 55.9883 -175.9036 -1.2756 -16.0724 -34.8416 -84.8820 43.9992 -74.6487 12.3194 11.4764 -49.5161 0.1774 -0.3170 -0.0068 -2.2682 6.0357 44.0440 -58.7995 -29.2642 107.9510 22.8087 8.9585 110.6640 0.0275 0.2865 0.3414 -52.0329 3.8264 101.8381 -2.5815 26.4988 6.3051 -1.7195 -8.2796 -0.6259 -0.2030 -3.1162 6.0397 -47.9790 -5.2139 81.7824 -1.0099 27.3425 16.7537 -6.7121 -7.8551 0.8884 0.3529 -5.0157 -4.2190 
0.0000 93.1000 0.0000 3.0491 -70.1888 -89.9754 -70.9914 -0.3553 88.0000 93.0125 70.0459 -6.0445 0.2874 18.1063 4.8783 -147.4801 17.9484 177.1385 -145.4232 55.8972 -177.0164 -1.6091 -16.0205 -34.8407 -84.9426 44.1216 -74.8565 12.0485 10.8194 -49.2016 -0.2248 -0.2050 -0.0223 -2.4566 6.0374 44.7052 -58.6777 -29.0473 107.8405 23.1689 8.9136 110.8211 -0.0111 0.1944 0.1840 -52.0800 3.8976 101.2013 -2.0360 25.3670 6.6912 -1.4866 -7.9786 -0.3976 -0.8090 -2.9990 5.8367 -47.9784 -5.3099 81.7618 -1.0393 27.1986 16.5852 -7.0883 -8.0630 0.7350 0.1251 -5.3358 -4.7915 
0.0000 93.1000 0.0000 4.1227 -70.0392 -89.9003 -70.9886 -0.3034 87.9998 93.9764 69.9529 -7.0325 0.1166 17.9855 5.0920 -146.4952 18.1311 176.3124 -144.8136 56.0551 -177.9959 -1.0805 -15.9831 -34.2100 -84.6690 44.1308 -74.7266 11.8670 10.0994 -49.2895 -0.0241 -0.2316 -0.0964 -2.1955 5.9874 45.2500 -58.9413 -28.9983 107.0483 22.6783 8.7298 110.8877 0.0306 0.2323 0.2515 -52.8002 3.1162 101.0967 -2.3421 25.0449 7.5153 -1.0021 -8.1238 -0.8014 -0.6016 -2.8004 5.0902 -47.6579 -5.0641 81.1675 -1.2590 27.2915 16.7337 -7.3980 -7.7579 0.9114 0.1368 -5.1116 -3.6432 
0.0000 93.1000 0.0000 4.1111 -69.9854 -88.8666 -70.9894 -0.3230 87.9982 92.9315 69.9385 -6.8778 -0.2843 18.1441 4.7336 -146.3230 18.0450 177.3005 -144.6497 56.0155 -177.1977 -1.0879 -16.0617 -34.1678 -85.1624 44.0280 -73.9130 11.0704 9.6277 -48.3119 -0.0573 -0.1709 0.0130 -2.1956 6.0877 45.1458 -59.2600 -29.0891 106.7688 22.2014 9.0490 110.7671 0.1339 0.2357 0.2202 -52.1909 3.0500 100.7629 -1.8529 24.4510 8.1170 -0.6938 -8.3038 -0.8557 -0.9138 -2.0664 4.4691 -47.9480 -5.0003 80.9996 -1.0265 27.1819 16.6762 -6.9105 -7.9332 0.7785 0.3791 -3.5727 -5.5408 
0.0000 93.1000 0.0000 4.0969 -70.2201 -88.8929 -70.9865 0.0351 87.9957 92.7532 70.1209 -6.5282 -0.3605 17.9186 5.2457 -147.5406 17.9724 177.0225 -144.4138 55.9995 -177.1955 -0.8071 -16.0241 -34.0401 -85.9688 44.3793 -73.9147 10.0275 9.2012 -48.2405 0.1405 0.0860 -0.1881 -1.9859 6.0478 45.2412 -58.9996 -29.4816 106.6653 21.8759 9.1888 110.6727 -0.0622 -0.0232 0.0160 -53.0375 2.7370 100.0983 -1.8155 24.4260 8.1864 -0.3489 -8.0117 -1.1042 -0.4240 -2.1777 4.2081 -47.8503 -4.8664 81.0956 -1.0573 27.2113 16.9430 -6.9582 -8.1476 1.0722 1.4823 -3.9134 -5.0681 
